<?xml version="1.0" encoding="UTF-8"?>
<svg version="1.1" xmlns="http://www.w3.org/2000/svg" width="1000" height="1000">
<path d="M0 0 C14.52 0 29.04 0 44 0 C44 0.66 44 1.32 44 2 C45.12148438 1.96003906 46.24296875 1.92007813 47.3984375 1.87890625 C52.31147506 1.87998794 56.85377205 2.84314692 61.625 3.9375 C63.26277685 4.3018796 64.90079288 4.66518608 66.5390625 5.02734375 C67.30774658 5.1989502 68.07643066 5.37055664 68.8684082 5.54736328 C70.67968872 5.93198292 72.50515495 6.24880052 74.33203125 6.55078125 C78.40024479 7.23576596 82.12460695 8.61258587 86 10 C86.93585938 10.31582031 87.87171875 10.63164062 88.8359375 10.95703125 C108.22318847 17.86709677 126.32929667 29.78408809 142 43 C142.65613281 43.54527344 143.31226563 44.09054688 143.98828125 44.65234375 C146.53504872 46.79555492 148.96036199 48.96022807 151.3125 51.3203125 C154.19776302 54.19718813 157.17745769 56.94307614 160.1875 59.6875 C175.60592389 73.8426959 175.60592389 73.8426959 180 80 C183.10699073 78.64738766 184.87539092 77.24756433 187 74.625 C193.95168326 66.41482236 201.70946516 58.84870269 210 52 C210.66 51.34 211.32 50.68 212 50 C217.71428571 45 217.71428571 45 220 45 C220.19722656 44.44441406 220.39445312 43.88882813 220.59765625 43.31640625 C222.57764168 40.04584536 225.38113508 38.12922759 228.4375 35.9375 C229.09419678 35.4621582 229.75089355 34.98681641 230.42749023 34.49707031 C238.58542498 28.71572203 247.2300641 23.78394932 256 19 C256.67015137 18.63326172 257.34030273 18.26652344 258.03076172 17.88867188 C264.70062958 14.28074746 271.20060379 11.37189647 278.609375 9.6171875 C280.79466323 9.05301178 282.65391085 8.3368327 284.6875 7.375 C287.75309568 6.10248859 290.28389295 5.61714334 293.56640625 5.31640625 C296.76522603 4.90050833 299.85648648 4.15879713 303 3.4375 C308.17090626 2.29211646 312.72316238 1.68338974 318 2 C318 1.34 318 0.68 318 0 C332.52 0 347.04 0 362 0 C362 0.66 362 1.32 362 2 C363.59908203 1.93039063 363.59908203 1.93039063 365.23046875 1.859375 C371.05786495 1.86450137 376.62389938 3.08433109 382.3125 4.25 C383.37662109 4.45496094 384.44074219 4.65992188 385.53710938 4.87109375 C402.45848599 8.27808233 419.58392605 15.4776769 434 25 C434.91523437 25.58136719 435.83046875 26.16273438 436.7734375 26.76171875 C442.50551253 30.47026598 447.99484789 34.42845278 453.375 38.625 C453.94573242 39.06803467 454.51646484 39.51106934 455.10449219 39.9675293 C457.99696505 42.25789729 460.6593813 44.62084177 463.2265625 47.2734375 C465.76089955 50.164508 465.76089955 50.164508 469 51 C469.4125 51.70125 469.825 52.4025 470.25 53.125 C471.80344513 55.67708843 473.12400061 57.19843976 475.25 59.2265625 C478.75557004 62.68246578 481.80839482 66.30805775 484.75 70.25 C485.25877686 70.9311084 485.76755371 71.6122168 486.29174805 72.31396484 C492.24122621 80.46058372 497.18671321 89.14868123 502 98 C502.52400391 98.94721924 502.52400391 98.94721924 503.05859375 99.91357422 C511.04302814 114.44348118 515.43820384 129.70771363 518 146 C518.18820312 147.04929687 518.37640625 148.09859375 518.5703125 149.1796875 C519.12901019 152.84677601 519.06387598 156.29519317 519 160 C519.66 160 520.32 160 521 160 C521 175.18 521 190.36 521 206 C520.34 206 519.68 206 519 206 C519.02449219 207.27875 519.04898438 208.5575 519.07421875 209.875 C519.04700963 237.73714105 508.24475174 267.40323326 494 291 C493.47293457 291.88526367 492.94586914 292.77052734 492.40283203 293.68261719 C489.36267531 298.7827124 486.30212616 303.8705439 483.20703125 308.9375 C482.6860083 309.79214844 482.16498535 310.64679688 481.62817383 311.52734375 C479.89806882 314.15479967 477.97693614 316.55509346 476 319 C474.86649466 321.01669827 474.86649466 321.01669827 474 323 C471.87470414 327.40771475 469.26552126 330.76963211 465.75 334.1875 C463.45558628 336.53405949 461.46536988 338.86802512 459.4375 341.4375 C451.24723161 351.79849742 442.50547493 361.66951923 433.51611328 371.33984375 C432.41212426 372.54872062 431.32399911 373.7721424 430.24560547 375.00390625 C422.71901632 383.55235873 414.58765006 391.48760056 406.5 399.5 C403.59089278 402.38255734 400.68509785 405.26839568 397.78125 408.15625 C396.78140076 409.14365173 396.78140076 409.14365173 395.76135254 410.15100098 C395.14981323 410.75923706 394.53827393 411.36747314 393.90820312 411.99414062 C393.36909302 412.52801392 392.82998291 413.06188721 392.27453613 413.61193848 C390.88840044 414.99359216 390.88840044 414.99359216 390 417 C389.26394531 417.42796875 388.52789063 417.8559375 387.76953125 418.296875 C384.56855994 420.26531434 382.29529684 422.5478545 379.6875 425.25 C376.00008661 429.02046324 372.24670265 432.62329049 368.23828125 436.05078125 C365.21136918 438.68678321 362.26204595 441.40300933 359.3125 444.125 C358.7654541 444.62829834 358.2184082 445.13159668 357.65478516 445.65014648 C353.82100152 449.19391635 350.043021 452.78672725 346.5 456.625 C345 458 345 458 342.625 459.375 C339.59957642 461.24788126 337.4854201 463.45540323 335 466 C330.98088501 469.62778011 326.75893346 473.01882876 322.5625 476.4375 C314.29250236 483.16882219 314.29250236 483.16882219 306.5625 490.5 C303.53882468 493.44992714 300.27206594 495.92433487 296.890625 498.44921875 C294.89411542 499.87182968 294.89411542 499.87182968 294 502 C292.34467377 503.01866229 290.67739862 504.01810813 289 505 C288.34 505.66 287.68 506.32 287 507 C285.86456391 507.86793987 284.7169728 508.72004687 283.5625 509.5625 C276.31425651 514.95900245 269.35747464 520.57233242 263 527 C249.48296008 539.51022395 249.48296008 539.51022395 242 544 C241.67 544.66 241.34 545.32 241 546 C239.34467377 547.01866229 237.67739862 548.01810813 236 549 C235.34 549.66 234.68 550.32 234 551 C232.07437132 552.44953505 230.12256007 553.85935221 228.16796875 555.26953125 C225.90784768 557.00454529 225.90784768 557.00454529 223.74609375 559.27734375 C220.31002722 562.68408397 216.62562071 565.69837942 212.875 568.75 C212.12017334 569.36762207 211.36534668 569.98524414 210.58764648 570.62158203 C209.0809967 571.85398842 207.57344959 573.08529875 206.06494141 574.31542969 C204.30488256 575.75127812 202.54774328 577.19051647 200.79296875 578.6328125 C199.03213047 580.07876554 197.26681855 581.51929609 195.49609375 582.953125 C193.73715778 584.39550755 192.0020933 585.86724553 190.28515625 587.359375 C188.96837891 588.48085937 188.96837891 588.48085937 187.625 589.625 C186.85414063 590.29789063 186.08328125 590.97078125 185.2890625 591.6640625 C183 593 183 593 180.53125 592.9609375 C177.40904286 591.77565516 175.40783434 590.17748146 172.875 588 C171.91335938 587.1853125 170.95171875 586.370625 169.9609375 585.53125 C168.98382813 584.6959375 168.00671875 583.860625 167 583 C165.17057612 581.49523444 163.33731433 579.99512112 161.5 578.5 C158.71058048 576.21991814 155.9237205 573.93707724 153.14453125 571.64453125 C149.030829 568.25711023 144.9223987 564.90250073 140.625 561.75 C137.45495358 559.4128171 134.75093322 556.82528276 132 554 C130.34106818 552.65705519 128.67523395 551.32255312 127 550 C126.46375 549.443125 125.9275 548.88625 125.375 548.3125 C123.91931103 546.73627162 123.91931103 546.73627162 121 546 C120.54625 545.38125 120.0925 544.7625 119.625 544.125 C118.12955728 541.89144184 118.12955728 541.89144184 115.82421875 540.7265625 C112.28580738 538.56338432 109.30307361 535.97401723 106.1875 533.25 C105.56294922 532.70923828 104.93839844 532.16847656 104.29492188 531.61132812 C102.52633428 530.07830683 100.76211729 528.54045052 99 527 C98.27425781 526.36578125 97.54851562 525.7315625 96.80078125 525.078125 C96.20652344 524.55734375 95.61226562 524.0365625 95 523.5 C93.66720643 522.33271675 92.33377195 521.16616521 91 520 C90.45778809 519.5246582 89.91557617 519.04931641 89.35693359 518.55957031 C87.47125237 516.90991111 85.57980673 515.26705253 83.6875 513.625 C82.77000977 512.8196582 82.77000977 512.8196582 81.83398438 511.99804688 C79.24492401 509.7595585 77.27983656 508.09327885 74 507 C73 505.66666667 72 504.33333333 71 503 C70.01 502.67 69.02 502.34 68 502 C66.85216018 500.85216018 65.70842031 499.69981285 64.58984375 498.5234375 C61.99389517 496.03591921 59.07744763 493.97025615 56.18359375 491.84375 C54 490 54 490 52.0390625 487.54296875 C49.88328317 484.85443936 47.64457623 482.93749504 44.9375 480.8125 C39.80050766 476.7111916 34.99397203 472.37595355 30.21484375 467.87109375 C28.2286011 465.7848873 28.2286011 465.7848873 26 466 C24.66796875 464.57421875 24.66796875 464.57421875 23.1875 462.6875 C20.6969436 459.67102514 18.42184395 457.93027094 15 456 C13.28641357 454.38161281 11.6292274 452.70328319 10 451 C5.25222323 446.15198226 0.46048098 441.44488891 -4.6875 437.0234375 C-7.75651979 434.33804518 -10.75386403 431.57870965 -13.75 428.8125 C-14.30526367 428.30098389 -14.86052734 427.78946777 -15.43261719 427.26245117 C-17.75004251 425.11921828 -20.01887954 422.9802836 -22.203125 420.69921875 C-23.99191101 418.76821579 -23.99191101 418.76821579 -27 418 C-28.54736328 416.43139648 -28.54736328 416.43139648 -30.1953125 414.43359375 C-33.88641129 410.0860633 -37.81970218 406.0687149 -41.875 402.0625 C-42.60315918 401.33812744 -43.33131836 400.61375488 -44.08154297 399.86743164 C-46.38525646 397.57581697 -48.69219474 395.28749348 -51 393 C-54.04464779 389.98214919 -57.08582967 386.96086584 -60.125 383.9375 C-61.15343018 382.92151733 -61.15343018 382.92151733 -62.20263672 381.88500977 C-66.13573173 377.97167178 -69.87822436 373.95147344 -73.49612427 369.74446106 C-75.56779156 367.34137493 -77.72220389 365.01788367 -79.875 362.6875 C-87.63762796 354.16268048 -94.71728575 345.15380621 -101.640625 335.9453125 C-103.93316061 333.08343858 -106.39038563 330.57027345 -109 328 C-111.12249377 325.04137232 -112.97553629 322.04344885 -114.76171875 318.87109375 C-117.2714819 314.46178436 -120.01668119 310.21034403 -122.75 305.9375 C-141.41550986 276.43824188 -158.27980387 241.83450835 -157 206 C-157.66 206 -158.32 206 -159 206 C-159 190.49 -159 174.98 -159 159 C-158.34 159 -157.68 159 -157 159 C-156.96261719 158.2471875 -156.92523438 157.494375 -156.88671875 156.71875 C-155.53278741 134.8434672 -149.54866924 115.13500962 -139 96 C-138.61295898 95.29456055 -138.22591797 94.58912109 -137.82714844 93.86230469 C-130.55411421 80.74266667 -122.23271645 69.15953975 -111.91015625 58.21875 C-109.91435657 56.0517201 -109.91435657 56.0517201 -108.55859375 53.40625 C-106.70602893 50.54614993 -104.94603215 49.65576695 -102 48 C-100.36579961 46.53277821 -98.76386125 45.02919453 -97.1875 43.5 C-90.87966844 37.66887366 -84.00433126 32.92970212 -76.83935547 28.21484375 C-75.25800719 27.17040666 -73.69187323 26.10299878 -72.12890625 25.03125 C-62.26875733 18.42780171 -50.9291247 12.57386311 -39.37109375 9.66796875 C-36.76131916 8.97816976 -36.76131916 8.97816976 -33.4140625 7.5625 C-28.37777101 5.64567186 -23.23163162 4.73493514 -17.9375 3.8125 C-16.98294922 3.63525391 -16.02839844 3.45800781 -15.04492188 3.27539062 C-9.94885502 2.36449945 -5.17557576 1.79182844 0 2 C0 1.34 0 0.68 0 0 Z M-32 50 C-32.33 50.66 -32.66 51.32 -33 52 C-33.99 51.67 -34.98 51.34 -36 51 C-38.71433878 52.17189543 -41.22581632 53.40106299 -43.8125 54.8125 C-44.56499023 55.21758789 -45.31748047 55.62267578 -46.09277344 56.04003906 C-55.59400218 61.27312206 -64.38429003 67.24282173 -72 75 C-73.0475955 75.94283595 -74.10275833 76.8773098 -75.1640625 77.8046875 C-83.78774734 85.40461261 -90.72246682 93.37741372 -97 103 C-97.59288818 103.88534424 -97.59288818 103.88534424 -98.19775391 104.78857422 C-109.41617312 121.82534408 -115.55191963 142.86625492 -118 163 C-118.12761719 163.886875 -118.25523437 164.77375 -118.38671875 165.6875 C-121.47699308 190.08862721 -117.43761626 216.06890035 -109.86328125 239.2890625 C-109.14478732 241.54532851 -108.56691402 243.75256665 -108.0625 246.0625 C-102.25016395 269.55402486 -85.52914914 293.73788494 -69.8671875 311.74609375 C-68 314 -68 314 -66.07421875 316.90234375 C-63.89036086 320.16373605 -61.48727599 323.15026134 -58.9375 326.125 C-58.2266626 326.96043335 -58.2266626 326.96043335 -57.50146484 327.81274414 C-53.28711037 332.73319392 -48.92407678 337.50684895 -44.5078125 342.24609375 C-42.73983984 344.18755905 -41.05903202 346.12584441 -39.40234375 348.15625 C-37.48310138 350.42813366 -35.73498933 352.21731282 -33.4375 354.0625 C-29.94143907 357.04804557 -26.82783031 360.28156536 -23.75 363.6875 C-18.12796304 369.87624429 -12.31596105 375.86726216 -6.4375 381.8125 C-5.55610352 382.71508545 -4.67470703 383.6176709 -3.76660156 384.54760742 C-2.5189502 385.80214722 -2.5189502 385.80214722 -1.24609375 387.08203125 C-0.50029053 387.83718018 0.2455127 388.5923291 1.01391602 389.37036133 C2.95835111 391.31716195 2.95835111 391.31716195 6 391 C6 391.66 6 392.32 6 393 C7.61799502 394.63675508 7.61799502 394.63675508 9.6875 396.3125 C12.94613525 399.08604944 16.00942174 401.93465728 19 405 C23.48909318 409.58647047 28.03665657 414.0176577 32.9140625 418.19140625 C34.43139497 419.50699602 35.92304375 420.85238731 37.3984375 422.21484375 C38.19507813 422.94832031 38.99171875 423.68179687 39.8125 424.4375 C40.54082031 425.11683594 41.26914062 425.79617188 42.01953125 426.49609375 C43.98374163 428.3023823 43.98374163 428.3023823 47 428 C47.185625 428.556875 47.37125 429.11375 47.5625 429.6875 C49.32897674 432.52922345 51.35255138 433.79115032 54.1484375 435.55859375 C56 437 56 437 57.90625 439.39453125 C60.10183051 442.12671819 62.37483716 444.08514879 65.125 446.25 C68.85304697 449.23639306 72.47367524 452.277863 76 455.5 C79.56831875 458.73770774 83.18213261 461.90465227 86.875 465 C87.75929688 465.7425 88.64359375 466.485 89.5546875 467.25 C91.81650719 469.10709472 91.81650719 469.10709472 94.1953125 469.5 C94.79085937 469.665 95.38640625 469.83 96 470 C96.67263898 471.33033042 97.33795091 472.66436786 98 474 C99.94437696 475.81837904 101.87804046 477.51152603 103.9375 479.1875 C104.52015625 479.67089844 105.1028125 480.15429688 105.703125 480.65234375 C107.46271872 482.109088 109.22998402 483.55594636 111 485 C111.93972656 485.76957031 112.87945312 486.53914063 113.84765625 487.33203125 C115.62971984 488.78865171 117.41360424 490.24304715 119.19921875 491.6953125 C122.26775994 494.22033245 125.29033154 496.79492333 128.3125 499.375 C133.35949559 503.67696291 138.52440987 507.7986917 143.76000977 511.86791992 C148.3996098 515.48940163 152.8993317 519.25465003 157.37573242 523.07495117 C162.16733323 527.15984791 167.0509786 531.10846181 172 535 C172.74378906 535.61359375 173.48757813 536.2271875 174.25390625 536.859375 C174.95386719 537.42140625 175.65382813 537.9834375 176.375 538.5625 C176.98085938 539.05878906 177.58671875 539.55507813 178.2109375 540.06640625 C179.95401834 541.1996796 179.95401834 541.1996796 181.91796875 540.7109375 C185.41797032 539.51581501 187.91045161 536.86696386 190.625 534.4375 C191.88301344 533.33468013 193.14213276 532.23312051 194.40234375 531.1328125 C195.01706543 530.59430664 195.63178711 530.05580078 196.26513672 529.50097656 C199.29460895 526.87992459 202.43671862 524.40625521 205.578125 521.921875 C210.09662444 518.33622706 214.54044287 514.65847685 219 511 C220.70822358 509.60403235 222.41655857 508.20820102 224.125 506.8125 C226.0838908 505.20900796 228.04231082 503.60495761 230 502 C230.63744141 501.47744629 231.27488281 500.95489258 231.93164062 500.41650391 C240.3964386 493.47291026 248.82833493 486.49595102 257.16796875 479.40234375 C258.66194928 478.13503613 260.16056622 476.87229686 261.69384766 475.65283203 C263.16326846 474.47652178 264.58592338 473.24229249 266 472 C266 471.34 266 470.68 266 470 C266.59224365 469.88914062 267.1844873 469.77828125 267.79467773 469.6640625 C270.22857477 468.93117199 271.40515384 468.06139401 273.28515625 466.375 C273.89278809 465.83770264 274.50041992 465.30040527 275.12646484 464.74682617 C275.76535645 464.17037354 276.40424805 463.5939209 277.0625 463 C278.4090605 461.80735544 279.75672403 460.61595514 281.10546875 459.42578125 C282.09812744 458.54720459 282.09812744 458.54720459 283.11083984 457.65087891 C285.65028394 455.43173688 288.25130894 453.30649236 290.875 451.1875 C296.47107591 446.65059196 302.00332762 442.01916148 307.08203125 436.90234375 C309 435 309 435 311.75 432.875 C312.4925 432.25625 313.235 431.6375 314 431 C314 430.34 314 429.68 314 429 C314.59006836 428.89510254 315.18013672 428.79020508 315.78808594 428.68212891 C318.33331267 427.8972102 319.48338316 426.92526077 321.390625 425.0859375 C322.32575928 424.19624268 322.32575928 424.19624268 323.27978516 423.28857422 C323.92995605 422.65709473 324.58012695 422.02561523 325.25 421.375 C326.59555844 420.09291436 327.94190483 418.81165514 329.2890625 417.53125 C329.93133789 416.91765625 330.57361328 416.3040625 331.23535156 415.671875 C335.17842239 411.93610452 339.22945921 408.33870157 343.5625 405.0625 C346.50880632 402.56947157 348.88359126 399.76401953 351.3515625 396.8046875 C353 395 353 395 356 393 C356 392.34 356 391.68 356 391 C356.90270882 390.82876366 356.90270882 390.82876366 357.82365417 390.65406799 C361.35359988 389.59319592 363.53426915 386.85055582 366.05078125 384.27734375 C366.62781296 383.69843887 367.20484467 383.119534 367.79936218 382.52308655 C369.02072261 381.29500567 370.23848075 380.06333324 371.45288086 378.82836914 C373.2885026 376.96190066 375.1342837 375.10602037 376.98242188 373.25195312 C382.37670586 367.82107973 387.67195512 362.36844331 392.64135742 356.54125977 C394.44108686 354.49962599 396.4137515 352.74373009 398.5 351 C402.05217681 347.91584649 405.16642684 344.70382799 408.19921875 341.11328125 C410.17933129 338.78954831 412.24254634 336.55646028 414.3125 334.3125 C419.57722228 328.48177515 424.28654418 322.27650903 429 316 C429.54398438 315.27941406 430.08796875 314.55882812 430.6484375 313.81640625 C431.59333907 312.56088787 432.53343454 311.30173837 433.46875 310.0390625 C434.5947775 308.53960752 435.74415049 307.0576127 436.90625 305.5859375 C451.91621068 286.2796475 466.59345001 263.27200157 472.21875 239.2421875 C473.05367044 235.77726766 474.02675476 232.36597754 475 228.9375 C478.5728219 215.57706254 480.46993478 201.81382092 481 188 C481.05285156 186.87078125 481.10570312 185.7415625 481.16015625 184.578125 C481.57188208 168.18069629 478.9368123 151.61644708 474 136 C473.79536133 135.33194336 473.59072266 134.66388672 473.37988281 133.97558594 C466.54190547 111.90803276 453.80686274 91.58424767 435.95703125 76.703125 C434 75 434 75 431.65234375 72.59375 C424.15726427 65.26424665 414.99851083 59.75760305 405.8125 54.8125 C404.71663574 54.21453613 404.71663574 54.21453613 403.59863281 53.60449219 C401.77388326 52.65226262 399.88966705 51.81584959 398 51 C396.515 51.495 396.515 51.495 395 52 C394.67 51.34 394.34 50.68 394 50 C391.15183084 48.91799711 388.34471501 47.95838657 385.4375 47.0625 C384.58285156 46.79671143 383.72820312 46.53092285 382.84765625 46.25708008 C354.56439835 37.7044369 326.36488388 38.72236418 298 46 C295.00428525 46.68867006 292.00321615 47.34475284 289 48 C289 48.66 289 49.32 289 50 C288.01 49.67 287.02 49.34 286 49 C285.34 49.33 284.68 49.66 284 50 C284 50.66 284 51.32 284 52 C283.01 51.67 282.02 51.34 281 51 C278.5107842 52.06349499 276.19266245 53.16983073 273.8125 54.4375 C273.15830078 54.77587891 272.50410156 55.11425781 271.83007812 55.46289062 C270.21540701 56.29969098 268.60707237 57.14869746 267 58 C267 58.66 267 59.32 267 60 C266.29101562 60.25652344 265.58203125 60.51304687 264.8515625 60.77734375 C242.88761232 70.19476348 222.30485682 92.88662307 207 111 C205.98435299 112.16517953 204.96728591 113.32912196 203.94921875 114.4921875 C202.84096225 115.76546524 201.73289072 117.03890398 200.625 118.3125 C200.0880249 118.92407959 199.5510498 119.53565918 198.99780273 120.16577148 C196.75974555 122.75510775 195.09326395 124.72020815 194 128 C192.67850557 128.68983672 191.34348935 129.35404443 190 130 C188.29772788 131.59884596 188.29772788 131.59884596 186.8125 133.4375 C186.30332031 134.03433594 185.79414063 134.63117188 185.26953125 135.24609375 C183.80508193 137.08459819 183.80508193 137.08459819 183 140 C181.68 140 180.36 140 179 140 C177.625 137.9375 177.625 137.9375 176 135 C175.00832812 133.70628251 173.98552948 132.43600001 172.9375 131.1875 C172.43089844 130.58292969 171.92429687 129.97835937 171.40234375 129.35546875 C170.08538435 127.76833747 170.08538435 127.76833747 168 128 C167.75636719 127.43796875 167.51273437 126.8759375 167.26171875 126.296875 C165.75819064 123.55980215 163.93300252 121.54204059 161.8125 119.25 C159.00954583 116.19223181 156.21892092 113.13280817 153.5 110 C152.33370955 108.66633757 151.16702821 107.3330169 150 106 C149.35933594 105.26523437 148.71867187 104.53046875 148.05859375 103.7734375 C133.31367764 87.10054894 116.68665078 70.78244124 97 60 C96.34 60 95.68 60 95 60 C95 59.34 95 58.68 95 58 C92.54595776 56.80283341 90.08748321 55.6170654 87.625 54.4375 C86.92632812 54.09525391 86.22765625 53.75300781 85.5078125 53.40039062 C83.69947784 52.53969288 81.85148044 51.76347564 80 51 C79.34 51.33 78.68 51.66 78 52 C77.67 51.34 77.34 50.68 77 50 C76.01 49.505 76.01 49.505 75 49 C74.34 49.33 73.68 49.66 73 50 C72.67 49.34 72.34 48.68 72 48 C69.61970711 47.25199447 67.29980393 46.62711889 64.875 46.0625 C63.79835083 45.80472778 63.79835083 45.80472778 62.69995117 45.54174805 C60.46940252 45.01485642 58.23573175 44.50441194 56 44 C55.33468262 43.84853516 54.66936523 43.69707031 53.98388672 43.54101562 C26.31876418 37.33863969 -5.6232352 38.4601654 -32 50 Z " fill="#000000" transform="translate(319,200)"/>
</svg>
