<?xml version="1.0" encoding="UTF-8"?>
<svg version="1.1" xmlns="http://www.w3.org/2000/svg" width="1000" height="1000">
<path d="M0 0 C0.71929688 0.32726074 1.43859375 0.65452148 2.1796875 0.99169922 C24.45446938 11.28098424 48.01105236 26.13982427 65 44 C66.45763912 45.43820393 67.91605386 46.87562195 69.375 48.3125 C73.4479074 52.3921173 77.27791666 56.60046634 81 61 C81.76054688 61.88300781 82.52109375 62.76601562 83.3046875 63.67578125 C112.69772543 98.24236012 141.94968309 152.10762199 140 199 C140.66 199 141.32 199 142 199 C142.02526739 206.24486551 142.0428318 213.48971974 142.05493164 220.73461914 C142.05997356 223.20142033 142.06680691 225.66821852 142.07543945 228.13500977 C142.08751125 231.67204529 142.09322956 235.20904145 142.09765625 238.74609375 C142.10281754 239.85649521 142.10797882 240.96689667 142.11329651 242.11094666 C142.11337204 243.13192947 142.11344757 244.15291229 142.11352539 245.20483398 C142.115746 246.10862289 142.11796661 247.0124118 142.12025452 247.94358826 C142 250 142 250 141 251 C140.7141763 252.54333473 140.48245199 254.09674412 140.2734375 255.65234375 C133.74239096 301.60879253 116.25739827 346.62699832 87 383 C86.55188965 383.55848633 86.1037793 384.11697266 85.64208984 384.69238281 C79.5651104 392.19910733 73.04226969 399.27184473 66.3894043 406.26953125 C63.31804344 409.50193259 60.30957652 412.76545693 57.390625 416.13671875 C54.54984919 419.40997681 51.60074159 422.47221704 48.5 425.5 C45.42374941 428.53047615 42.41983949 431.57959225 39.625 434.875 C36.02166884 439.11064648 32.06569758 442.96909587 28.05712891 446.81787109 C24.72861463 450.07234984 21.77410833 453.48086758 18.875 457.125 C13.49640749 463.78780383 7.48220412 469.70413942 1.375 475.6875 C-7.81292516 484.67868306 -7.81292516 484.67868306 -16.45214844 494.19165039 C-19.14550819 497.33829324 -21.98339898 500.35070581 -24.8125 503.375 C-25.72044312 504.34771851 -25.72044312 504.34771851 -26.64672852 505.34008789 C-30.95192948 509.93234022 -35.36375039 514.3906822 -39.84375 518.8125 C-42.39061135 521.39627238 -44.7341195 524.11439516 -47.08984375 526.87109375 C-49.46189464 529.51479055 -51.97280978 532.0064149 -54.5 534.5 C-58.88444435 538.83197586 -62.99759096 543.31515256 -67 548 C-73.64545955 555.73826846 -80.8213213 562.89330973 -88.08496094 570.0480957 C-92.34757116 574.26501645 -96.44396491 578.54446847 -100.35107422 583.09277344 C-103.07152057 586.23937203 -105.90940506 589.27457975 -108.75 592.3125 C-109.35271729 592.95840088 -109.95543457 593.60430176 -110.57641602 594.26977539 C-115.1525119 599.15034023 -119.85479108 603.87911469 -124.61328125 608.58203125 C-127.29518456 611.2990495 -129.78146963 614.13617253 -132.2578125 617.0390625 C-134.2543789 619.28631885 -136.36012946 621.38894927 -138.5 623.5 C-141.83520906 626.79597131 -144.96312166 630.18496759 -148.0234375 633.734375 C-155.75788466 642.59994684 -163.90967395 651.02817214 -172.30444336 659.26757812 C-176.14259767 663.05485424 -179.77073719 666.94998729 -183.29174805 671.03344727 C-186.0378245 674.19475151 -188.89030482 677.25415269 -191.75 680.3125 C-192.35271729 680.95840088 -192.95543457 681.60430176 -193.57641602 682.26977539 C-198.1525119 687.15034023 -202.85479108 691.87911469 -207.61328125 696.58203125 C-210.29518456 699.2990495 -212.78146963 702.13617253 -215.2578125 705.0390625 C-217.89771838 708.01043638 -220.74194023 710.76456888 -223.59375 713.53125 C-226.21528366 716.22087544 -228.6602843 719.02773953 -231.12158203 721.86328125 C-234.23081801 725.40006749 -237.45596491 728.82518275 -240.6875 732.25 C-241.38157959 732.98726318 -242.07565918 733.72452637 -242.79077148 734.48413086 C-247.46158387 739.42562158 -252.22267219 744.26084165 -257.05786133 749.04077148 C-260.18444842 752.14482268 -263.12009607 755.34386547 -265.98046875 758.69140625 C-273.6192437 767.42354551 -281.68891513 775.7753653 -289.94311523 783.92382812 C-293.24873741 787.20205719 -296.3435934 790.59379369 -299.35546875 794.140625 C-301.17153591 796.19394559 -303.09681992 798.0898476 -305.0625 800 C-308.38860335 803.24246825 -311.03863038 806.64731706 -313.578125 810.53125 C-314.04734375 811.0159375 -314.5165625 811.500625 -315 812 C-316.32 812 -317.64 812 -319 812 C-320.97265625 809.98046875 -320.97265625 809.98046875 -323.0625 807.1875 C-327.21010566 801.87145847 -331.63785157 797.25859165 -336.4609375 792.53515625 C-338.50099013 790.49824217 -340.39550997 788.45161252 -342.25 786.25 C-345.77634259 782.10740337 -349.63782693 778.32533718 -353.5 774.5 C-357.8522503 770.18494842 -362.12042562 765.88039542 -366.0859375 761.203125 C-374.037114 752.05115858 -382.51577531 743.3494486 -391.18359375 734.87890625 C-393.99567456 732.07083912 -396.57578557 729.08024769 -399.17651367 726.07739258 C-402.17772479 722.65828622 -405.30824743 719.36409505 -408.4375 716.0625 C-409.84645781 714.57171253 -411.25530884 713.08082413 -412.6640625 711.58984375 C-413.73769043 710.45458252 -413.73769043 710.45458252 -414.83300781 709.29638672 C-416.96464588 707.03746517 -419.08904539 704.77198196 -421.2109375 702.50390625 C-427.08220494 696.23279842 -432.95003997 689.97505243 -439.0625 683.9375 C-442.52152936 680.51428899 -445.79109048 677.02437548 -448.95703125 673.33203125 C-457.21549749 663.9050631 -465.98045224 654.95828303 -474.87817383 646.13891602 C-478.46771741 642.56920156 -481.92607301 638.95503136 -485.19921875 635.08984375 C-491.31717294 627.98983184 -497.76371615 621.14011654 -504.453125 614.578125 C-506.07344555 612.9250707 -507.56477115 611.20215082 -509.0625 609.4375 C-512.51394711 605.42255132 -516.23963368 601.72160977 -520 598 C-524.18210457 593.85635281 -528.25123266 589.70284374 -532.0703125 585.21875 C-540.61589034 575.39306536 -549.7656882 566.10917387 -559.05029297 556.98657227 C-563.59285054 552.50110932 -567.84768873 547.84731924 -572 543 C-577.36191289 536.90071029 -582.89812396 531.0623431 -588.67578125 525.35546875 C-590.64834837 523.35637972 -592.49616486 521.32673916 -594.3125 519.1875 C-597.52241701 515.42861857 -600.98813249 511.97284676 -604.5 508.5 C-608.50498286 504.53483145 -612.37387257 500.5418155 -616.03515625 496.25390625 C-623.90921686 487.22143513 -632.28723379 478.66372067 -640.8125 470.25 C-646.05896633 465.06750794 -650.88363634 459.83385385 -655.42578125 454.015625 C-659.79339287 448.89909059 -664.63841779 444.24670554 -669.44311523 439.54321289 C-673.62214608 435.44028798 -677.59395037 431.2577162 -681.40966797 426.81518555 C-683.65957229 424.24717225 -686.05694744 421.88556897 -688.5 419.5 C-692.19093195 415.85844716 -695.7186842 412.14185274 -699.08203125 408.1953125 C-701.03825419 405.95621414 -703.06246141 403.78967428 -705.1003418 401.625 C-742.25406099 362.02609608 -766.8825357 311.03853642 -774.10083008 257.12988281 C-774.2844003 253.24345044 -774.2844003 253.24345044 -776 250 C-776.09333705 248.40389018 -776.11745372 246.80366572 -776.11352539 245.20483398 C-776.11344986 244.18385117 -776.11337433 243.16286835 -776.11329651 242.11094666 C-776.10813522 241.0005452 -776.10297394 239.89014374 -776.09765625 238.74609375 C-776.0962413 237.61551041 -776.09482635 236.48492706 -776.09336853 235.32008362 C-776.08775019 231.69252935 -776.07519458 228.06503576 -776.0625 224.4375 C-776.05748736 221.98502693 -776.05292405 219.5325529 -776.04882812 217.08007812 C-776.0377748 211.05336455 -776.02101884 205.02668661 -776 199 C-775.34 199 -774.68 199 -774 199 C-774.05027344 197.79085937 -774.10054687 196.58171875 -774.15234375 195.3359375 C-774.06762518 147.04635203 -744.13978102 91.91154126 -711.66796875 57.81640625 C-709.53943382 55.56944625 -707.50057107 53.2965269 -705.5 50.9375 C-691.24290212 34.63392874 -674.50867742 22.45333895 -656.05810547 11.25585938 C-654.33954992 10.20719392 -652.63820121 9.13039669 -650.94140625 8.046875 C-596.70575572 -25.64377584 -523.20501066 -30.66277356 -462.09375 -16.5625 C-429.14915477 -8.41214441 -397.83031446 6.13394878 -371 27 C-370.21415527 27.60851807 -369.42831055 28.21703613 -368.61865234 28.84399414 C-361.41732949 34.56783797 -354.90828784 40.81387296 -348.44628906 47.34790039 C-346.74340608 49.0691651 -345.03253071 50.7821666 -343.3203125 52.49414062 C-338.18532439 57.6461069 -333.14882392 62.82264479 -328.42236328 68.35717773 C-326.40959182 70.6819184 -324.2528342 72.84336325 -322.0625 75 C-320.90427734 76.1446875 -320.90427734 76.1446875 -319.72265625 77.3125 C-319.15417969 77.869375 -318.58570313 78.42625 -318 79 C-315.09778672 77.68729086 -313.03287708 76.28101018 -310.79296875 74.0234375 C-309.9122168 73.13978516 -309.9122168 73.13978516 -309.01367188 72.23828125 C-308.41103516 71.62339844 -307.80839844 71.00851563 -307.1875 70.375 C-306.59646484 69.78332031 -306.00542969 69.19164062 -305.39648438 68.58203125 C-302.36111215 65.51686802 -299.43901533 62.39141228 -296.62109375 59.125 C-286.0223966 46.88742064 -274.36434408 35.18728287 -261 26 C-260.34241699 25.54109375 -259.68483398 25.0821875 -259.00732422 24.609375 C-222.51054116 -0.7506754 -182.34357691 -17.73881584 -138 -23 C-137.28884033 -23.0942627 -136.57768066 -23.18852539 -135.8449707 -23.28564453 C-89.12955688 -28.86256206 -42.45806075 -19.32146974 0 0 Z " fill="#000000" transform="translate(817,147)"/>
</svg>
