<?xml version="1.0" encoding="UTF-8"?>
<svg version="1.1" xmlns="http://www.w3.org/2000/svg" width="512" height="512">
<path d="M0 0 C0.77950994 -0.00320648 1.55901987 -0.00641296 2.36215132 -0.0097166 C4.96584035 -0.01799683 7.56929815 -0.01209927 10.1729908 -0.00622082 C12.06192842 -0.0092424 13.95086481 -0.01313192 15.83979905 -0.01781338 C21.02436002 -0.0281012 26.20885189 -0.02590955 31.39341855 -0.02163279 C36.98725777 -0.01916701 42.58108029 -0.02817789 48.17491341 -0.03567028 C59.13140403 -0.04842332 70.08787015 -0.05021022 81.04436694 -0.04787002 C89.94950961 -0.0460874 98.85464483 -0.04783528 107.75978661 -0.05209446 C109.02693091 -0.05268965 110.2940752 -0.05328484 111.59961782 -0.05389806 C114.17377423 -0.05510981 116.74793065 -0.05632394 119.32208706 -0.05754044 C136.60708524 -0.06532817 153.89207903 -0.06924641 171.17707825 -0.06522369 C172.19073278 -0.06498913 172.19073278 -0.06498913 173.22486518 -0.06474983 C176.64983852 -0.06394406 180.07481184 -0.06309829 183.49978517 -0.06223653 C184.52007868 -0.06197989 184.52007868 -0.06197989 185.56098418 -0.06171808 C186.9365045 -0.06137142 188.31202482 -0.06102289 189.68754513 -0.06067249 C211.09076052 -0.05531526 232.49393471 -0.06324633 253.89714241 -0.08170605 C277.95082794 -0.1024275 302.00448159 -0.11311741 326.05817902 -0.10913056 C338.79156198 -0.1072173 351.5249074 -0.10971832 364.25828362 -0.1238451 C375.09809266 -0.13574936 385.93784107 -0.13717447 396.77765094 -0.12505493 C402.30796251 -0.11915963 407.8381631 -0.11808492 413.36846733 -0.13005733 C418.43273328 -0.14089342 423.4967953 -0.13783977 428.56105162 -0.12379565 C430.39139543 -0.12114247 432.2217551 -0.12353472 434.05208336 -0.13153151 C446.98879423 -0.1841218 458.73052393 0.27924592 468.89079475 9.25447559 C476.57263924 18.43321054 477.87286286 27.49452084 476.89079475 39.25447559 C474.92376736 47.38171453 469.30570093 53.60618101 462.82829475 58.62947559 C455.28546383 62.80210546 447.48846319 63.40789978 438.99834156 63.38311005 C437.84600278 63.3857396 437.84600278 63.3857396 436.67038444 63.38842228 C434.09911693 63.39306995 431.52790627 63.39061996 428.95663643 63.38818836 C427.09331174 63.39005695 425.22998743 63.39235785 423.36666375 63.39505368 C418.24826951 63.4011721 413.12989159 63.40103804 408.01149452 63.39985931 C402.49058141 63.39965532 396.96967356 63.40517393 391.44876289 63.40991688 C380.63317913 63.41822412 369.81760081 63.42097175 359.00201412 63.42152926 C350.21126602 63.42200436 341.42051972 63.42405883 332.62977219 63.42722988 C311.76436536 63.43460345 290.8989595 63.44075469 270.03355122 63.44023132 C269.36641268 63.44021574 268.69927413 63.44020017 268.01191927 63.44018411 C264.63065441 63.44010101 261.24938955 63.44000197 257.86812469 63.43989941 C257.19660431 63.43987946 256.52508393 63.43985952 255.83321445 63.43983897 C254.47523701 63.43979853 253.11725956 63.43975673 251.75928212 63.43971358 C230.63148193 63.43910082 209.50369778 63.44660771 188.37590218 63.46028614 C164.63389488 63.47565075 140.89189657 63.48423947 117.14988309 63.48332292 C104.58081318 63.48299081 92.01176138 63.48574389 79.44269562 63.49650097 C68.74194588 63.50560036 58.04122245 63.50778581 47.34047052 63.50099155 C41.88107124 63.49772358 36.42172245 63.4976797 30.96232796 63.5063448 C25.96282714 63.51419834 20.96341694 63.51279003 15.96391837 63.50406066 C14.15709717 63.50252316 12.35026925 63.50435124 10.54345598 63.50992074 C-16.57714107 63.58797065 -16.57714107 63.58797065 -26.85920525 54.00447559 C-33.9766928 46.46448878 -35.5787391 38.24699935 -35.39045525 28.12947559 C-34.81676607 20.22531368 -31.86263274 13.75775406 -26.10920525 8.25447559 C-17.85959233 2.32729257 -10.12707266 -0.06262842 0 0 Z " fill="#000000" transform="translate(35.10920524597168,367.7455244064331)"/>
<path d="M0 0 C0.76822585 -0.00175304 1.5364517 -0.00350607 2.32795712 -0.00531223 C4.89922463 -0.0099599 7.47043529 -0.00750991 10.04170513 -0.00507832 C11.90502982 -0.00694691 13.76835413 -0.0092478 15.63167781 -0.01194364 C20.75007206 -0.01806206 25.86844997 -0.01792799 30.98684704 -0.01674926 C36.50776015 -0.01654527 42.028668 -0.02206388 47.54957867 -0.02680683 C58.36516243 -0.03511407 69.18074075 -0.0378617 79.99632744 -0.03841921 C88.78707554 -0.03889431 97.57782184 -0.04094879 106.36856937 -0.04411983 C127.2339762 -0.05149341 148.09938206 -0.05764464 168.96479034 -0.05712128 C169.63192889 -0.0571057 170.29906743 -0.05709012 170.98642229 -0.05707407 C174.36768715 -0.05699096 177.74895201 -0.05689192 181.13021687 -0.05678936 C181.80173725 -0.05676942 182.47325763 -0.05674947 183.16512711 -0.05672892 C184.52310455 -0.05668848 185.881082 -0.05664669 187.23905944 -0.05660353 C208.36685964 -0.05599078 229.49464378 -0.06349766 250.62243938 -0.07717609 C274.36444668 -0.0925407 298.10644499 -0.10112943 321.84845847 -0.10021287 C334.41752838 -0.09988077 346.98658018 -0.10263384 359.55564594 -0.11339092 C370.25639568 -0.12249031 380.95711911 -0.12467577 391.65787105 -0.1178815 C397.11727032 -0.11461353 402.57661911 -0.11456966 408.0360136 -0.12323475 C413.03551442 -0.1310883 418.03492462 -0.12967999 423.03442319 -0.12095062 C424.84124439 -0.11941312 426.64807231 -0.1212412 428.45488558 -0.12681069 C455.57548263 -0.20486061 455.57548263 -0.20486061 465.85754681 9.37863445 C472.97503436 16.91862126 474.57708066 25.1361107 474.38879681 35.25363445 C473.81510763 43.15779637 470.8609743 49.62535598 465.10754681 55.12863445 C456.85793389 61.05581748 449.12541422 63.44573846 438.99834156 63.38311005 C437.82907665 63.38791976 437.82907665 63.38791976 436.63619024 63.39282665 C434.03250122 63.40110688 431.42904341 63.39520932 428.82535076 63.38933086 C426.93641314 63.39235245 425.04747675 63.39624196 423.15854251 63.40092343 C417.97398154 63.41121125 412.78948967 63.4090196 407.60492301 63.40474284 C402.01108379 63.40227705 396.41726127 63.41128794 390.82342815 63.41878033 C379.86693753 63.43153337 368.91047141 63.43332027 357.95397462 63.43098006 C349.04883195 63.42919745 340.14369673 63.43094533 331.23855495 63.43520451 C329.33783851 63.43609729 329.33783851 63.43609729 327.39872374 63.43700811 C324.82456733 63.43821985 322.25041091 63.43943399 319.6762545 63.44065049 C302.39125632 63.44843822 285.10626253 63.45235646 267.82126331 63.44833374 C266.80760878 63.44809918 266.80760878 63.44809918 265.77347638 63.44785987 C262.34850304 63.44705411 258.92352972 63.44620833 255.49855639 63.44534657 C254.81836072 63.44517548 254.13816504 63.4450044 253.43735738 63.44482812 C252.06183706 63.44448147 250.68631674 63.44413294 249.31079643 63.44378254 C227.90758104 63.43842531 206.50440685 63.44635637 185.10119915 63.46481609 C161.04751362 63.48553755 136.99385997 63.49622746 112.94016254 63.49224061 C100.20677958 63.49032734 87.47343416 63.49282837 74.74005795 63.50695515 C63.9002489 63.51885941 53.06050049 63.52028451 42.22069062 63.50816498 C36.69037905 63.50226967 31.16017846 63.50119497 25.62987423 63.51316738 C20.56560828 63.52400346 15.50154626 63.52094982 10.43728994 63.5069057 C8.60694613 63.50425252 6.77658646 63.50664476 4.9462582 63.51464156 C-7.99045267 63.56723185 -19.73218237 63.10386413 -29.89245319 54.12863445 C-37.57429768 44.9498995 -38.8745213 35.88858921 -37.89245319 24.12863445 C-35.9254258 16.00139552 -30.30735937 9.77692904 -23.82995319 4.75363445 C-16.28712227 0.58100458 -8.49012163 -0.02478974 0 0 Z " fill="#000000" transform="translate(37.89245319366455,80.87136554718018)"/>
<path d="M0 0 C1.91541581 -0.00461239 3.83082808 -0.01096757 5.74623299 -0.01890898 C10.99476045 -0.03557893 16.2429963 -0.02736644 21.4915247 -0.0149641 C27.15759806 -0.00590644 32.82362162 -0.01988692 38.48968506 -0.03088379 C49.58362662 -0.04866589 60.6774599 -0.04483036 71.7714057 -0.03323323 C80.78806287 -0.02419799 89.8046897 -0.0229753 98.8213501 -0.02732849 C100.10487558 -0.02794142 101.38840107 -0.02855436 102.71082127 -0.02918586 C105.31831663 -0.03046477 107.92581198 -0.03176162 110.53330731 -0.03307623 C134.28425756 -0.04415604 158.03514224 -0.03266781 181.78608206 -0.01170584 C203.45816835 0.00727596 225.13016062 0.00557742 246.80224609 -0.0135498 C271.16286163 -0.0349781 295.5234132 -0.0433825 319.88403893 -0.03110075 C322.48191706 -0.02982656 325.07979519 -0.02856908 327.67767334 -0.02732849 C329.59495859 -0.02640284 329.59495859 -0.02640284 331.55097687 -0.02545848 C340.55631595 -0.02200547 349.56162166 -0.02783292 358.56695557 -0.0372467 C369.54215057 -0.04846755 380.51723114 -0.04542471 391.49241304 -0.02412373 C397.0916222 -0.0136146 402.6906406 -0.00948934 408.28984833 -0.02272034 C413.41701119 -0.03465261 418.54380673 -0.02806759 423.67093635 -0.00681013 C425.52409686 -0.00234766 427.37728849 -0.00460234 429.23042893 -0.01431328 C441.46025808 -0.07347699 452.1363756 0.4291472 461.42138672 9.35559082 C468.04427171 17.15304729 470.4874087 25.49501981 469.82763672 35.59777832 C468.54989124 44.2398271 464.58505486 51.72241233 457.510252 56.98867846 C447.83542989 63.4903243 437.71236034 63.07462996 426.49902344 63.01586914 C424.58360762 63.02048153 422.66819535 63.02683671 420.75279045 63.03477812 C415.50426299 63.05144807 410.25602714 63.04323558 405.00749874 63.03083324 C399.34142537 63.02177558 393.67540182 63.03575606 388.00933838 63.04675293 C376.91539682 63.06453503 365.82156354 63.0606995 354.72761774 63.04910237 C345.71096057 63.04006713 336.69433374 63.03884445 327.67767334 63.04319763 C326.39414785 63.04381056 325.11062237 63.0444235 323.78820217 63.045055 C321.18070681 63.04633391 318.57321146 63.04763076 315.96571612 63.04894537 C292.21476588 63.06002518 268.4638812 63.04853695 244.71294138 63.02757498 C223.04085509 63.00859318 201.36886281 63.01029172 179.69677734 63.02941895 C155.3361618 63.05084724 130.97561024 63.05925164 106.61498451 63.04696989 C104.01710638 63.0456957 101.41922824 63.04443822 98.8213501 63.04319763 C96.90406485 63.04227198 96.90406485 63.04227198 94.94804657 63.04132763 C85.94270749 63.03787461 76.93740178 63.04370206 67.93206787 63.05311584 C56.95687287 63.06433669 45.98179229 63.06129385 35.00661039 63.03999287 C29.40740124 63.02948374 23.80838284 63.02535848 18.20917511 63.03858948 C13.08201225 63.05052175 7.9552167 63.04393673 2.82808709 63.02267927 C0.97492658 63.0182168 -0.87826506 63.02047148 -2.7314055 63.03018242 C-14.96123464 63.08934613 -25.63735216 62.58672194 -34.92236328 53.66027832 C-41.54524827 45.86282185 -43.98838527 37.52084934 -43.32861328 27.41809082 C-42.05086781 18.77604204 -38.08603142 11.29345681 -31.01122856 6.02719069 C-21.33640645 -0.47445516 -11.2133369 -0.05876082 0 0 Z " fill="#000000" transform="translate(42.75048828125,224.4920654296875)"/>
</svg>
