<?xml version="1.0" encoding="UTF-8"?>
<svg version="1.1" xmlns="http://www.w3.org/2000/svg" width="512" height="512">
<path d="M0 0 C42.06968241 36.64736778 68.14452717 85.29224333 72.45141602 141.38574219 C75.90692164 195.67223628 57.70166021 247.72189531 21.97216797 288.4909668 C21.34623749 289.20544479 20.72030701 289.91992279 20.07540894 290.65605164 C19.60064117 291.19752335 19.12587341 291.73899506 18.63671875 292.296875 C19.38639829 293.04471095 20.13607782 293.7925469 20.90847492 294.56304455 C39.14129411 312.75148407 57.36835972 330.94567367 75.58939075 349.14592266 C84.40103831 357.94725332 93.21455263 366.74669936 102.0324707 375.54174805 C109.71727203 383.20662822 117.398563 390.87500582 125.07564181 398.54762107 C129.14150154 402.61087127 133.20910911 406.67233663 137.28092384 410.72961998 C141.11254043 414.54767285 144.93944964 418.37038083 148.76278496 422.19672585 C150.16753156 423.60092175 151.57399597 425.00340157 152.98229218 426.40403748 C154.9039252 428.3157284 156.81929751 430.23348241 158.73323059 432.15287781 C159.29257052 432.70639205 159.85191044 433.2599063 160.42820007 433.8301937 C165.36531504 438.80551703 168.195074 442.96678627 168.765625 449.953125 C168.47058856 455.31742387 165.87560128 459.11842576 162.07421875 462.734375 C157.85280637 465.44040858 153.5551403 466.02042563 148.63671875 465.296875 C142.91802515 463.01211751 139.32406607 459.3598061 135.11328125 455.03125 C134.40827484 454.31962708 133.70326843 453.60800415 132.97689819 452.87481689 C130.73125675 450.60585936 128.49602737 448.32698839 126.26171875 446.046875 C124.03288852 443.78276624 121.80186129 441.52088797 119.56796265 439.26177979 C118.18216515 437.85926072 116.79948015 436.45365649 115.42056274 435.04437256 C114.77984833 434.39389954 114.13913391 433.74342651 113.47900391 433.07324219 C112.92862457 432.51159363 112.37824524 431.94994507 111.81118774 431.37127686 C109.94017983 429.58637107 108.02886945 427.90725505 106.06723022 426.22441101 C100.77529934 421.61762093 95.85563859 416.64809153 90.90625 411.67993164 C89.85111128 410.62451028 88.79575118 409.56931019 87.7401886 408.51431274 C84.89760132 405.67201042 82.05809109 402.82665247 79.21915436 399.98070455 C76.24344826 396.99871446 73.26487854 394.01958742 70.28662109 391.04014587 C64.65727897 385.40770524 59.03048915 379.77272211 53.40462875 374.13680404 C46.99542905 367.71639707 40.58336343 361.29885554 34.17106438 354.88154423 C20.98977455 341.68982356 7.81205915 328.49453757 -5.36328125 315.296875 C-6.4706665 315.92376221 -7.57805176 316.55064941 -8.71899414 317.1965332 C-9.34189835 317.54915726 -9.96480255 317.90178131 -10.60658264 318.26509094 C-12.7779416 319.54042272 -14.78025227 320.98288099 -16.80078125 322.484375 C-41.57514107 340.01411142 -71.40985148 351.09288486 -101.36328125 355.296875 C-102.5961084 355.47049561 -103.82893555 355.64411621 -105.09912109 355.82299805 C-109.40891996 356.35300689 -113.6766516 356.49156492 -118.015625 356.53515625 C-118.82465271 356.5449501 -119.63368042 356.55474396 -120.46722412 356.56483459 C-138.75099283 356.74044252 -156.46638432 356.51811402 -174.36328125 352.296875 C-175.27513184 352.08256836 -176.18698242 351.86826172 -177.12646484 351.64746094 C-222.92371364 340.46866899 -264.73358539 312.52617102 -292.36328125 274.296875 C-292.77352539 273.73629395 -293.18376953 273.17571289 -293.60644531 272.59814453 C-307.91420096 252.83576945 -318.27603503 230.42528973 -324.61328125 206.921875 C-324.96495361 205.63216797 -324.96495361 205.63216797 -325.32373047 204.31640625 C-329.4681599 188.06000827 -330.92339409 171.77505059 -330.80078125 155.046875 C-330.79773987 154.15778442 -330.79469849 153.26869385 -330.79156494 152.35266113 C-330.71943496 138.03117319 -329.82772238 124.24827306 -326.36328125 110.296875 C-326.13833984 109.38615234 -325.91339844 108.47542969 -325.68164062 107.53710938 C-324.11714404 101.38687075 -322.32043363 95.33269248 -320.36328125 89.296875 C-320.03553711 88.26288574 -320.03553711 88.26288574 -319.70117188 87.20800781 C-310.48075809 58.65309558 -292.8789814 33.81793871 -272.36328125 12.296875 C-271.67621094 11.56855469 -270.98914063 10.84023438 -270.28125 10.08984375 C-203.07491109 -59.30651842 -86.36889259 -64.82029215 0 0 Z M-252.36328125 38.296875 C-255.54166823 41.8414356 -258.48248907 45.50836151 -261.36328125 49.296875 C-262.08773437 50.20566406 -262.8121875 51.11445312 -263.55859375 52.05078125 C-273.62221054 64.93711982 -281.42338996 79.08495829 -287.36328125 94.296875 C-288.03810547 96.00810547 -288.03810547 96.00810547 -288.7265625 97.75390625 C-303.57021012 138.700315 -301.5159605 185.36960494 -283.48144531 224.94580078 C-275.92937918 240.82492674 -266.58380011 255.15599646 -254.5390625 267.96875 C-252.84394314 269.78255815 -251.2708159 271.5991721 -249.73828125 273.546875 C-238.18389474 286.92563833 -221.99180936 297.34175978 -206.36328125 305.296875 C-205.75307129 305.61350098 -205.14286133 305.93012695 -204.51416016 306.25634766 C-166.00327587 326.05456065 -119.44581641 328.70147559 -78.37109375 315.9609375 C-59.7191268 309.90101575 -42.93260709 301.19297017 -27.36328125 289.296875 C-25.98076172 288.25273438 -25.98076172 288.25273438 -24.5703125 287.1875 C10.53334714 259.60234944 33.05304598 218.63775457 38.42753601 174.40740967 C40.22427334 156.27935366 39.98104131 136.01374839 35.63671875 118.296875 C35.33870361 117.05091553 35.33870361 117.05091553 35.03466797 115.77978516 C27.77678832 86.26440792 13.21940023 59.58714065 -7.93017578 37.77685547 C-9.26263602 36.4008122 -10.57740067 35.00769411 -11.890625 33.61328125 C-39.80308771 4.61508255 -81.49995301 -12.93939547 -121.62890625 -13.90625 C-171.18428446 -14.46619778 -217.58842661 1.99281393 -252.36328125 38.296875 Z " fill="#000000" transform="translate(337.36328125,46.703125)"/>
</svg>
