<?xml version="1.0" encoding="UTF-8"?>
<svg version="1.1" xmlns="http://www.w3.org/2000/svg" width="512" height="512">
<path d="M0 0 C1.02609375 0.350625 2.0521875 0.70125 3.109375 1.0625 C24.89718286 9.19059412 41.59579314 27.19034959 51.24609375 47.9375 C53.99672496 54.14466345 56.12994282 60.47372758 58 67 C58.36931641 68.23363281 58.36931641 68.23363281 58.74609375 69.4921875 C60.89850636 78.07214951 60.16219479 87.22345972 60 96 C60.98282959 95.97905273 61.96565918 95.95810547 62.97827148 95.93652344 C66.66269062 95.86352687 70.34704731 95.81798642 74.03198242 95.78027344 C75.61965726 95.76029255 77.20725979 95.73309797 78.79467773 95.69824219 C91.28571926 95.43105413 99.89107137 96.47254813 109.28125 105.28515625 C117.120349 113.10643912 118.40507767 121.60756532 119.05004883 132.34716797 C119.12658849 133.46662748 119.20312815 134.586087 119.28198719 135.73946953 C119.53431565 139.49225078 119.76798826 143.24591116 120 147 C120.0853091 148.33304967 120.17107854 149.66606996 120.25728989 150.99906158 C120.93487797 161.4793462 121.57155597 171.96193454 122.19921875 182.4453125 C122.29890173 184.10608927 122.39860608 185.76686476 122.49833107 187.42763901 C122.9657703 195.21756757 123.43099633 203.00762443 123.89347905 210.79784882 C124.42248224 219.70707741 124.95950826 228.61577692 125.50311345 237.52412617 C125.92697846 244.47900459 126.34330628 251.43431 126.75413257 258.38997066 C126.99803019 262.51630019 127.24500795 266.64238563 127.50009727 270.7680397 C127.73934912 274.64037927 127.96911991 278.51317358 128.19208145 282.38648415 C128.27457916 283.79258871 128.36028335 285.19851014 128.44974327 286.60418892 C129.84904915 308.6865623 127.8859373 329.05634953 113.16015625 346.6171875 C103.144327 357.66538975 90.60063244 364.76486292 76 368 C73.23516678 368.10249757 70.49516191 368.15215081 67.73016357 368.15390015 C66.88865604 368.1582824 66.0471485 368.16266465 65.18014073 368.1671797 C62.3554431 368.18055232 59.53077667 368.18674328 56.70605469 368.19287109 C54.68218851 368.20077366 52.65832374 368.20904271 50.63446045 368.21765137 C43.98027897 368.24386717 37.32609125 368.25918479 30.671875 368.2734375 C28.37779995 368.27879853 26.08372494 368.28417605 23.78964996 368.28956985 C14.24009623 368.31120346 4.69054418 368.3299363 -4.85902786 368.34119225 C-18.52171696 368.35740389 -32.18412042 368.39050862 -45.84670186 368.44759309 C-55.46393811 368.48639649 -65.08109831 368.50583759 -74.69841075 368.51111281 C-80.43567985 368.51475378 -86.17264426 368.52664035 -91.90982819 368.55921555 C-97.31734202 368.58947701 -102.72436974 368.59554388 -108.13195038 368.58383179 C-110.10547201 368.58361252 -112.07901737 368.59179457 -114.05245972 368.60948563 C-134.96658654 368.78660283 -151.0728301 364.0084671 -166.71484375 349.3828125 C-180.53689574 334.97007453 -185.11614731 317.42672893 -184.9861238 297.91801667 C-184.85597175 292.86681536 -184.54133204 287.82689549 -184.22729492 282.78442383 C-184.13135809 281.12834762 -184.03625502 279.47222294 -183.94190979 277.8160553 C-183.68611591 273.36943587 -183.41838068 268.92361288 -183.14796615 264.47786164 C-182.86501836 259.79718991 -182.5922139 255.11592509 -182.31794739 250.43473816 C-181.85627336 242.58116425 -181.3869799 234.72807486 -180.9128418 226.87524414 C-180.36659381 217.82688164 -179.83152643 208.77791192 -179.30263823 199.72851926 C-178.79110055 190.97910568 -178.2725372 182.23012274 -177.75051308 173.48132896 C-177.52956386 169.77725807 -177.31085771 166.07306515 -177.0939846 162.36875343 C-176.83787221 158.00079656 -176.57550929 153.63325644 -176.30852318 149.26595116 C-176.21211226 147.67348023 -176.11772215 146.08088531 -176.02562332 144.48815918 C-174.45959047 117.48367589 -174.45959047 117.48367589 -169 109 C-168.443125 108.13375 -167.88625 107.2675 -167.3125 106.375 C-161.49958563 100.40497984 -154.61827849 96.27578008 -146.19775391 95.77294922 C-144.79065037 95.77326169 -143.38351852 95.78431066 -141.9765625 95.8046875 C-141.23038666 95.8075174 -140.48421082 95.81034729 -139.71542358 95.81326294 C-137.35178012 95.82438313 -134.98852732 95.84947179 -132.625 95.875 C-131.01432842 95.88504038 -129.40365085 95.89416438 -127.79296875 95.90234375 C-123.86183056 95.9242956 -119.93098133 95.95876815 -116 96 C-116.04640625 94.82566406 -116.0928125 93.65132813 -116.140625 92.44140625 C-116.88533658 65.2793306 -107.29092717 40.46764011 -88.55224609 20.55664062 C-65.91175822 -2.14794426 -30.413462 -11.38632075 0 0 Z M-76.3125 32.6875 C-93.35793359 50.74220269 -98.57142887 71.71429073 -100 96 C-52.48 96 -4.96 96 44 96 C43.44745143 82.39380776 43.44745143 82.39380776 40.9375 69.375 C40.72198486 68.59068604 40.50646973 67.80637207 40.28442383 66.99829102 C36.72845217 54.87258746 30.45074604 44.38416178 22 35 C21.39800781 34.30519531 20.79601562 33.61039063 20.17578125 32.89453125 C8.0154064 19.71441846 -9.2466004 12.96767142 -26.88769531 12.04296875 C-45.62712426 11.66176909 -62.87488738 20.04033519 -76.3125 32.6875 Z M-153.9375 117.5625 C-159.6792859 125.64705936 -158.61653398 138.02285446 -159.16088867 147.53442383 C-159.26075255 149.18969643 -159.36120735 150.84493346 -159.46220398 152.50013733 C-159.73309924 156.97097329 -159.99512203 161.44228701 -160.25501037 165.91377473 C-160.47348409 169.65861528 -160.69634073 173.40318987 -160.91917688 177.14777297 C-161.4452297 185.98885521 -161.96407988 194.8303397 -162.47827148 203.67211914 C-163.00722569 212.76579629 -163.54768581 221.85873698 -164.09395427 230.95138913 C-164.56409849 238.78320254 -165.02734947 246.61540296 -165.48509961 254.44795054 C-165.75788938 259.11482299 -166.03313378 263.78151521 -166.31490135 268.447855 C-166.57975859 272.83956285 -166.83592168 277.23169699 -167.08568001 281.62428856 C-167.17818745 283.22673544 -167.27362214 284.82901675 -167.37236786 286.43109131 C-168.45387448 304.04195396 -168.27932352 319.51899351 -157 334 C-154.62494782 336.70848923 -154.62494782 336.70848923 -152 339 C-151.52304688 339.48082031 -151.04609375 339.96164062 -150.5546875 340.45703125 C-137.68742806 352.73376429 -119.3659931 352.3008021 -102.75390625 352.25878906 C-100.93911601 352.26150417 -99.12432687 352.26506801 -97.30953979 352.26940918 C-92.41287879 352.2784736 -87.51630271 352.27501361 -82.61964035 352.26865101 C-77.47632379 352.26356007 -72.33301413 352.26829102 -67.18969727 352.27142334 C-58.55516261 352.275054 -49.92066225 352.27028755 -41.28613281 352.26074219 C-31.32726448 352.24985939 -21.36847806 352.2533856 -11.4096117 352.264395 C-2.8334499 352.27349356 5.74268735 352.27474061 14.31885242 352.26951766 C19.42977553 352.26641206 24.54066023 352.26594963 29.65158081 352.27259064 C34.45827919 352.27840095 39.26487275 352.27430025 44.07155991 352.26280212 C45.82744041 352.26017515 47.58332985 352.26088673 49.3392067 352.26532745 C67.9031792 352.30792053 85.09853407 350.78100262 99 337 C110.89936497 322.83952729 112.49780616 308.5883604 111.375 290.6796875 C111.27733844 288.96563083 111.18087288 287.25150571 111.08544922 285.537323 C110.86451509 281.61356706 110.63500828 277.69041711 110.40039062 273.76745605 C109.99283738 266.92859968 109.60861379 260.0884895 109.22647095 253.24817705 C108.4399785 239.17775835 107.63161465 225.1086831 106.81030273 211.0402565 C106.72053086 209.5022614 106.63076851 207.96426574 106.54101562 206.42626953 C106.47417068 205.28089175 106.47417068 205.28089175 106.40597534 204.11237502 C106.04057557 197.84192165 105.68185703 191.57109717 105.32427406 185.30019391 C104.97417572 179.16735507 104.61865404 173.0348451 104.25909996 166.90255344 C104.0465764 163.27566815 103.83630041 159.64868835 103.63189697 156.0213356 C103.40563911 152.00869618 103.16813793 147.99679663 102.9296875 143.98486328 C102.86521423 142.8119574 102.80074097 141.63905151 102.73431396 140.43060303 C102.36501915 128.42435162 102.36501915 128.42435162 97.9375 117.5625 C90.58187444 111.14589047 81.75499471 111.61140299 72.4375 111.8125 C71.23802734 111.82603516 70.03855469 111.83957031 68.80273438 111.85351562 C65.86801121 111.888592 62.93425118 111.93774573 60 112 C59.98541748 112.7113208 59.97083496 113.4226416 59.95581055 114.15551758 C59.88138994 117.37506332 59.78471 120.59356518 59.6875 123.8125 C59.65366211 125.49182617 59.65366211 125.49182617 59.61914062 127.20507812 C59.58369141 128.27822266 59.54824219 129.35136719 59.51171875 130.45703125 C59.48553467 131.44678955 59.45935059 132.43654785 59.43237305 133.45629883 C58.94044597 136.3503633 58.32977552 137.2722651 56 139 C54.0625 139.3984375 54.0625 139.3984375 52 139.375 C51.319375 139.38273437 50.63875 139.39046875 49.9375 139.3984375 C48 139 48 139 45 136 C44.67 128.08 44.34 120.16 44 112 C-3.52 112 -51.04 112 -100 112 C-100.33 119.92 -100.66 127.84 -101 136 C-104 139 -104 139 -105.9375 139.3984375 C-106.618125 139.39070313 -107.29875 139.38296875 -108 139.375 C-108.680625 139.38273437 -109.36125 139.39046875 -110.0625 139.3984375 C-112.63704929 138.86899389 -113.394018 138.07340919 -115 136 C-115.43237305 133.45629883 -115.43237305 133.45629883 -115.51171875 130.45703125 C-115.54716797 129.38388672 -115.58261719 128.31074219 -115.61914062 127.20507812 C-115.65297852 125.52575195 -115.65297852 125.52575195 -115.6875 123.8125 C-115.72166016 122.68134766 -115.75582031 121.55019531 -115.79101562 120.38476562 C-115.87356314 117.5899426 -115.94269182 114.79543602 -116 112 C-120.145697 111.9120432 -124.29115012 111.85928847 -128.4375 111.8125 C-129.60216797 111.78736328 -130.76683594 111.76222656 -131.96679688 111.73632812 C-140.25478671 111.66628877 -147.49390155 111.94148859 -153.9375 117.5625 Z " fill="#000000" transform="translate(284,80)"/>
</svg>
