<?xml version="1.0" encoding="UTF-8"?>
<svg version="1.1" xmlns="http://www.w3.org/2000/svg" width="512" height="512">
<path d="M0 0 C1.37166364 1.1460442 2.72670987 2.31233709 4.0625 3.5 C4.72378906 4.06847656 5.38507813 4.63695313 6.06640625 5.22265625 C15.41059276 13.83539959 22.01489044 25.54764706 26.0625 37.5 C26.38089844 38.39847656 26.69929687 39.29695313 27.02734375 40.22265625 C29.33291604 48.11685078 29.2057011 55.79197469 29.13671875 63.9609375 C29.13136108 65.1677417 29.12600342 66.3745459 29.1204834 67.61791992 C29.10656589 70.5786865 29.08708189 73.53930596 29.0625 76.5 C29.87824997 76.48889694 30.69399994 76.47779388 31.5344696 76.46635437 C39.22940232 76.36608888 46.92401748 76.29000355 54.6194334 76.24093914 C58.57559303 76.21486618 62.53121205 76.17951191 66.48706055 76.12280273 C70.30612802 76.06839821 74.1246762 76.03856214 77.94410133 76.02561378 C79.39979031 76.01638881 80.85545146 75.99837382 82.31091881 75.97134972 C84.35332579 75.93494257 86.39359903 75.93005884 88.4362793 75.93237305 C89.59765915 75.92126999 90.759039 75.91016693 91.95561218 75.89872742 C96.00209801 76.68183937 97.47089312 78.37621131 100.0625 81.5 C101.52610518 84.42721035 101.21052188 87.37129751 101.20967102 90.58023071 C101.21334771 91.31794059 101.2170244 92.05565047 101.2208125 92.81571519 C101.23187271 95.30114129 101.23569729 97.7865256 101.23950195 100.27197266 C101.2457654 102.04924147 101.25241209 103.82650897 101.25941467 105.60377502 C101.28049104 111.45719485 101.29082792 117.31061502 101.30078125 123.1640625 C101.30482901 125.18139027 101.30894594 127.19871789 101.31313133 129.21604538 C101.3321995 138.70411128 101.34642091 148.19216937 101.3547433 157.68025076 C101.36448908 168.60992051 101.39073193 179.53938628 101.43124419 190.46898425 C101.46151053 198.92695581 101.47622255 207.38486933 101.47952431 215.84289396 C101.48186501 220.88821984 101.4906952 225.93332827 101.51598549 230.97859573 C101.53945229 235.73763524 101.54342551 240.4963171 101.53322411 245.2553997 C101.53273294 246.99025482 101.53892764 248.72512864 101.55278015 250.45992851 C101.70328295 270.44803151 97.67694192 287.2418413 83.515625 302.24609375 C72.34742045 312.50732628 58.51465278 317.83715021 43.46818542 317.76069641 C42.65225192 317.76452196 41.83631841 317.76834751 40.99565965 317.77228898 C38.28764779 317.78252896 35.57985155 317.77864409 32.87182617 317.7746582 C30.9195486 317.7790097 28.96727274 317.78419431 27.01499939 317.79014587 C21.72975185 317.80350087 16.44457598 317.80411837 11.15931487 317.80158257 C6.73858961 317.80051036 2.31787871 317.80540271 -2.10284346 317.810188 C-12.53740468 317.82127136 -22.97192989 317.82172735 -33.40649414 317.81567383 C-44.15091853 317.80963611 -54.89521189 317.82194266 -65.63961393 317.8432439 C-74.88237776 317.86089051 -84.1251 317.86685638 -93.36788005 317.86360615 C-98.88017033 317.86179783 -104.39236716 317.86438426 -109.90464211 317.87832069 C-115.09135003 317.89094403 -120.27785456 317.88891241 -125.46455956 317.87590981 C-127.36073248 317.87355417 -129.25691991 317.87624211 -131.15307617 317.88453293 C-150.84614465 317.96438489 -166.6933042 314.47473649 -181.4296875 300.296875 C-191.54495159 289.01567704 -197.09669071 275.04936791 -197.07794189 259.94702148 C-197.08091302 259.19490355 -197.08388414 258.44278563 -197.0869453 257.66787624 C-197.09560434 255.15227073 -197.09713815 252.63671297 -197.09863281 250.12109375 C-197.1032628 248.31568297 -197.10828771 246.51027317 -197.11367798 244.7048645 C-197.12678275 239.80415508 -197.13324267 234.90345934 -197.13768864 230.00273514 C-197.14062124 226.94142727 -197.14472631 223.88012313 -197.14919281 220.81881714 C-197.16285996 211.24161452 -197.1725316 201.66442044 -197.1763947 192.08720875 C-197.18087979 181.02901597 -197.19845186 169.97094652 -197.2273953 158.91279125 C-197.24899291 150.36490976 -197.25909788 141.81706304 -197.26043582 133.26915455 C-197.26148482 128.16334604 -197.2674134 123.05765359 -197.28525543 117.95187378 C-197.30170387 113.151833 -197.30390736 108.35199598 -197.29511642 103.5519371 C-197.29434443 101.78988983 -197.29871004 100.02783175 -197.30857468 98.26581192 C-197.32124776 95.86129005 -197.31544314 93.45749501 -197.30499268 91.05297852 C-197.31304908 90.35501884 -197.32110548 89.65705915 -197.32940602 88.93794918 C-197.28551541 84.62326977 -196.58515922 81.92453578 -193.9375 78.5 C-190.35233972 76.10989315 -188.79483033 76.25673398 -184.53833008 76.27294922 C-183.57206947 76.27251114 -183.57206947 76.27251114 -182.58628845 76.27206421 C-180.45973177 76.27345616 -178.33352663 76.28901062 -176.20703125 76.3046875 C-174.73158459 76.30841812 -173.25613545 76.31126486 -171.78068542 76.31326294 C-167.89919178 76.32089558 -164.01784804 76.34054083 -160.13641357 76.3626709 C-156.17494739 76.38313731 -152.21345695 76.39226635 -148.25195312 76.40234375 C-140.48040044 76.42378714 -132.70897123 76.45791855 -124.9375 76.5 C-124.94928284 75.33744942 -124.94928284 75.33744942 -124.96130371 74.15141296 C-124.99268277 70.60486714 -125.01206111 67.05835064 -125.03125 63.51171875 C-125.04381836 62.29254761 -125.05638672 61.07337646 -125.06933594 59.81726074 C-125.14798894 40.42601827 -118.07343353 22.83495383 -104.9375 8.5 C-104.37417969 7.86835937 -103.81085938 7.23671875 -103.23046875 6.5859375 C-76.29356597 -22.05423548 -30.54112252 -22.85354545 0 0 Z M-89.68359375 23.8359375 C-103.46557172 40.12590106 -103.9375 55.15975273 -103.9375 76.5 C-66.9775 76.5 -30.0175 76.5 8.0625 76.5 C8.0625 53.54502327 7.02526761 37.48852556 -9.07421875 21.19921875 C-21.01768529 9.94009818 -34.8646238 4.89238804 -51.1875 5.19140625 C-66.50657598 6.45203854 -79.19772827 12.69365347 -89.68359375 23.8359375 Z M-175.9375 97.5 C-175.98271621 118.41492953 -176.0195295 139.32981924 -176.04112434 160.24478531 C-176.05141948 169.95682785 -176.06544598 179.66883777 -176.08837891 189.38085938 C-176.10836689 197.84977292 -176.12122924 206.31866284 -176.12567699 214.78759933 C-176.12827523 219.2682626 -176.13434523 223.74885829 -176.14896011 228.22949982 C-176.16262963 232.45491614 -176.16670388 236.68023764 -176.16371536 240.90567398 C-176.16426136 242.44869377 -176.16818262 243.99171703 -176.17591095 245.53471756 C-176.24434937 259.91557318 -175.97776422 273.65719555 -165.82421875 284.82421875 C-156.83622634 293.22232565 -147.14283382 296.82127008 -134.84980774 296.76742554 C-134.07626975 296.77195665 -133.30273176 296.77648776 -132.50575322 296.78115618 C-129.93516979 296.79373249 -127.36480008 296.79218422 -124.79418945 296.79052734 C-122.94220205 296.7965169 -121.09021714 296.80332343 -119.23823547 296.81088257 C-114.22145398 296.8285081 -109.20474077 296.83323655 -104.1879313 296.83451414 C-101.04864755 296.83593847 -97.90938101 296.84021345 -94.77010155 296.84550858 C-83.80383584 296.8639988 -72.83761867 296.87218062 -61.87133789 296.87060547 C-51.67280066 296.86940497 -41.47447537 296.89049207 -31.27599174 296.9220928 C-22.50116751 296.94830665 -13.72641228 296.95897059 -4.95154923 296.95769465 C0.28081172 296.95718644 5.5129843 296.96279131 10.74530602 296.98405075 C15.67104596 297.00351888 20.59641951 297.00349929 25.52217293 296.98901749 C27.3211763 296.98693876 29.12020312 296.99157389 30.91916656 297.0037384 C44.11512413 297.08712779 56.64125003 296.46057003 67.1328125 287.41015625 C77.23971013 277.40555515 80.06926456 266.29228268 80.18275452 252.38781738 C80.1894187 249.49873733 80.18318879 246.60977705 80.17602539 243.72070312 C80.175743 242.12348431 80.17590226 240.52626537 80.1764679 238.92904663 C80.17675385 234.61146477 80.1708898 230.2939109 80.16389394 225.97633553 C80.15762674 221.45732898 80.15705394 216.93832174 80.15586853 212.41931152 C80.15276513 203.87015728 80.14456512 195.32101588 80.13451904 186.77186728 C80.1233271 177.03547215 80.1178397 167.29907639 80.11282361 157.56267643 C80.10238166 137.54177553 80.08404852 117.52089224 80.0625 97.5 C63.2325 97.5 46.4025 97.5 29.0625 97.5 C28.89216673 107.19257919 28.89216673 107.19257919 28.76464844 116.88574219 C28.71872559 118.69800293 28.71872559 118.69800293 28.671875 120.546875 C28.65092773 121.78276367 28.62998047 123.01865234 28.60839844 124.29199219 C27.97075937 128.0391198 27.01662319 129.19559038 24.0625 131.5 C20.48230989 133.29009505 16.50053267 132.96638897 12.75 131.75 C11.0625 130.5 11.0625 130.5 9.0625 126.5 C8.7325 116.93 8.4025 107.36 8.0625 97.5 C-28.8975 97.5 -65.8575 97.5 -103.9375 97.5 C-104.2675 107.07 -104.5975 116.64 -104.9375 126.5 C-105.2675 127.82 -105.5975 129.14 -105.9375 130.5 C-109.84362185 132.79771874 -113.48768206 132.82362312 -117.9375 132.5 C-121.31781589 131.31232145 -121.86966817 130.60174775 -123.9375 127.5 C-124.25634766 124.40551758 -124.25634766 124.40551758 -124.3515625 120.64453125 C-124.38717285 119.43385986 -124.4227832 118.22318848 -124.45947266 116.97583008 C-124.49347168 115.43693115 -124.5274707 113.89803223 -124.5625 112.3125 C-124.68625 107.424375 -124.81 102.53625 -124.9375 97.5 C-141.7675 97.5 -158.5975 97.5 -175.9375 97.5 Z " fill="#000000" transform="translate(303.9375,102.5)"/>
</svg>
