<?xml version="1.0" encoding="UTF-8"?>
<svg version="1.1" xmlns="http://www.w3.org/2000/svg" width="512" height="512">
<path d="M0 0 C1.11803712 -0.00307895 1.11803712 -0.00307895 2.25866085 -0.0062201 C4.7641898 -0.01188882 7.26966375 -0.01043301 9.77519798 -0.00901413 C11.58658644 -0.01159784 13.39797433 -0.01461102 15.20936143 -0.01801753 C20.19352327 -0.02609013 25.1776707 -0.02787725 30.16183829 -0.028615 C35.53488473 -0.03046511 40.90792369 -0.03801225 46.28096581 -0.04475021 C58.03309861 -0.05833608 69.785228 -0.0643587 81.53736734 -0.06876087 C88.87490887 -0.07152296 96.21244907 -0.07576026 103.5499897 -0.08026505 C123.86372419 -0.09245822 144.17745761 -0.10275732 164.49119568 -0.10614014 C165.79150184 -0.1063597 167.091808 -0.10657927 168.43151738 -0.10680549 C169.73494395 -0.10702377 171.03837051 -0.10724204 172.38129485 -0.10746694 C175.0225548 -0.1079104 177.66381474 -0.10835697 180.30507469 -0.10880661 C181.61523227 -0.10902804 182.92538985 -0.10924947 184.27524917 -0.10947761 C205.50358882 -0.11342546 226.73189414 -0.13087887 247.96022053 -0.15416613 C269.75272245 -0.1778794 291.54520715 -0.19034198 313.33772218 -0.19150805 C325.57431175 -0.19242485 337.8108566 -0.19817822 350.04743385 -0.21632767 C360.46750674 -0.23172831 370.88752109 -0.23684932 381.3076032 -0.22858956 C386.62334426 -0.22468291 391.93896743 -0.2256135 397.25469398 -0.23964691 C402.12421851 -0.2523847 406.99353652 -0.25118928 411.86306076 -0.2390562 C413.6215092 -0.237099 415.37997226 -0.24017869 417.13840015 -0.24890056 C430.00635148 -0.30866782 441.65496144 -0.08013428 451.54384422 9.13142776 C458.28502088 16.02581298 461.15142061 23.52342869 461.63759422 33.07674026 C461.34277136 42.68305202 457.86270329 50.09521338 450.92665672 56.66267776 C448.57679157 58.67350765 446.11665793 60.41621863 443.54384422 62.13142776 C442.70403376 64.30625774 442.70403376 64.30625774 442.22775841 66.91644669 C442.01119276 67.92974076 441.79462711 68.94303484 441.57149887 69.9870348 C441.34556864 71.10581485 441.1196384 72.2245949 440.8868618 73.37727737 C440.63873552 74.55567908 440.39060925 75.73408079 440.13496399 76.94819164 C439.45147873 80.20606401 438.77910305 83.46587778 438.11126399 86.7269702 C437.39885848 90.19189422 436.67214411 93.65381483 435.94693565 97.11607742 C434.71070481 103.02732354 433.48308934 108.94030259 432.26155663 114.85460281 C430.36369857 124.04301358 428.4496887 133.22801579 426.53261375 142.41243362 C425.89647907 145.46089258 425.26045115 148.5093738 424.62447166 151.55786514 C424.46765938 152.30946602 424.3108471 153.0610669 424.14928293 153.83544356 C423.04346706 159.13672552 421.94007894 164.43850931 420.8377285 169.74051285 C417.33581081 186.58051647 413.80662223 203.41417854 410.20400047 220.23299026 C409.91548053 221.58035483 409.91548053 221.58035483 409.6211319 222.95493889 C408.06371092 230.22457935 406.50114057 237.49310662 404.93462181 244.76079178 C404.31915086 247.6162228 403.7049348 250.47191774 403.09216881 253.32793045 C402.56220104 255.79690289 402.03005713 258.26541008 401.49490929 260.73326492 C400.16260891 266.94473877 399.01750839 273.13914311 398.11797142 279.42901993 C396.03904712 289.21448443 390.2368486 296.24381532 382.15321922 301.70174026 C374.22248445 306.04702309 367.71903964 306.56279016 358.79091454 306.51237869 C357.51565533 306.51705866 356.24039612 306.52173864 354.92649269 306.52656043 C351.40264001 306.53904268 347.8790322 306.53291284 344.35517883 306.52360177 C340.54870665 306.51680017 336.74227589 306.527298 332.935812 306.53554153 C325.48521472 306.54886923 318.0347082 306.54600543 310.5841074 306.53730361 C304.52791348 306.53052368 298.47174496 306.52961168 292.41554832 306.53287506 C291.55302932 306.53333476 290.69051032 306.53379446 289.80185437 306.53426809 C288.04956849 306.53522728 286.29728261 306.53619992 284.54499674 306.53718586 C268.12050443 306.54573693 251.69606238 306.53591006 235.27157831 306.51978476 C221.18392303 306.50638184 207.09634192 306.50871001 193.00868797 306.52254105 C176.64227007 306.53860185 160.2758962 306.54491299 143.90947151 306.53570426 C142.16369439 306.53474863 140.41791726 306.53380551 138.67214012 306.53287506 C137.81322332 306.53241223 136.95430651 306.53194941 136.06936193 306.53147256 C130.02166069 306.52888417 123.97398742 306.5332504 117.92629051 306.54031372 C110.55441635 306.54873448 103.18263801 306.54643649 95.8107748 306.53047149 C92.05077975 306.5225965 88.29094435 306.51948392 84.53095055 306.52941895 C80.45275315 306.54003165 76.37495758 306.52734489 72.29677391 306.51237869 C70.51894964 306.52241694 70.51894964 306.52241694 68.70520973 306.53265798 C58.37037315 306.45900988 50.60392947 303.74099675 42.54384422 297.13142776 C35.1478586 289.35826328 32.16745928 280.06164614 30.62489891 269.65779495 C30.29366943 267.60654968 29.95869555 265.55590626 29.62038231 263.50581741 C29.44683723 262.4526886 29.27329216 261.39955978 29.09448814 260.31451797 C28.19998708 255.14370347 27.13381079 250.01220658 26.04872704 244.87849808 C25.82720498 243.82980671 25.60568293 242.78111534 25.37744808 241.70064545 C24.67039404 238.36961237 23.95866102 235.03959773 23.24696922 231.70955276 C22.73538027 229.2989308 22.22419599 226.88822292 21.71338463 224.47743607 C19.23729165 212.80330367 16.74168656 201.13335366 14.24315357 189.46400833 C12.96385911 183.48882444 11.68625099 177.51328046 10.40936065 171.5375824 C9.98517532 169.55295115 9.56062035 167.56839921 9.13604736 165.58385086 C5.72592292 149.63627202 2.41688046 133.67516431 -0.69963646 117.66758347 C-1.73047905 112.39508974 -2.78601728 107.12747441 -3.84145355 101.85985565 C-4.78908331 97.11149784 -5.69160888 92.35740581 -6.56070995 87.59408569 C-7.09770542 84.71041682 -7.67661124 81.83640514 -8.268013 78.96345139 C-8.64631179 77.06008363 -8.97219069 75.14652269 -9.2955265 73.2330513 C-10.67078916 66.74029365 -10.67078916 66.74029365 -15.20624733 62.16536331 C-18.3514083 60.56977463 -18.3514083 60.56977463 -21.51894569 59.41963577 C-27.54096793 56.77848412 -31.8216972 51.2331696 -34.39365578 45.25642776 C-37.20181095 35.96932634 -36.9453273 27.20327372 -33.45615578 18.13142776 C-29.19192756 10.46612327 -22.75629434 4.51840466 -14.44834328 1.67439651 C-9.59604924 0.35190853 -5.01555991 -0.01286901 0 0 Z M85.54384422 95.13142776 C81.87946896 101.44385357 82.11849487 107.49575222 82.15566063 114.65681839 C82.15040367 115.90480713 82.14514671 117.15279587 82.13973045 118.43860245 C82.12882099 121.84576768 82.13133292 125.25238334 82.14086771 128.65951729 C82.14849223 132.23434915 82.14141097 135.80915841 82.13670921 139.38399124 C82.13125976 145.38594628 82.13842192 151.38779037 82.15273094 157.38972855 C82.16905597 164.31703982 82.16376689 171.24408615 82.14725173 178.17139101 C82.13361368 184.13170013 82.13172849 190.09192974 82.13956773 196.05224943 C82.14423155 199.60654381 82.14490487 203.16071388 82.13495827 206.71500015 C82.12463943 210.67878295 82.13896389 214.64227179 82.15566063 218.60603714 C82.14958794 219.77611816 82.14351524 220.94619919 82.13725853 222.15173721 C82.18466704 228.23190744 82.47632672 232.81469428 85.54384422 238.13142776 C89.07089153 240.81870191 91.7905449 241.34898795 96.10634422 241.06892776 C100.19607922 240.44822599 102.61843157 239.14825957 105.54384422 236.13142776 C106.83272131 233.5536736 106.68142374 231.69375924 106.69774437 228.80617142 C106.70634483 227.67618225 106.7149453 226.54619308 106.72380638 225.38196182 C106.72806633 224.13622894 106.73232628 222.89049606 106.73671532 221.6070137 C106.74489281 220.29962738 106.7530703 218.99224106 106.76149559 217.64523697 C106.78772243 213.30211323 106.80302503 208.95897982 106.81728172 204.61580276 C106.82264135 203.12077961 106.82801886 201.62575652 106.83341408 200.13073349 C106.85504482 193.91136257 106.87378108 187.69199424 106.88503647 181.47259521 C106.90127237 172.55963451 106.93443861 163.64710999 106.99143732 154.73431373 C107.0301472 148.46756476 107.04967044 142.2009324 107.05495703 135.93406701 C107.05860947 132.19122219 107.07061791 128.44884252 107.10305977 124.70612717 C107.1387535 120.52829467 107.13476695 116.35139834 107.12734032 112.17341995 C107.14374565 110.935784 107.16015099 109.69814804 107.17705345 108.42300797 C107.24731886 101.43414524 107.24731886 101.43414524 104.19487572 95.37880325 C98.51715678 90.56559511 91.52720528 90.91587793 85.54384422 95.13142776 Z M165.54384422 95.13142776 C162.63244727 99.4985232 162.41948897 103.35356074 162.41013145 108.51373672 C162.40586647 109.58053665 162.40160149 110.64733658 162.39720726 111.74646378 C162.39766045 112.90660492 162.39811363 114.06674606 162.39858055 115.262043 C162.39522194 116.49183884 162.39186333 117.72163467 162.38840294 118.98869705 C162.38053914 122.35441789 162.37722589 125.72007703 162.37658715 129.08580279 C162.37587538 131.19030378 162.37373867 133.29479833 162.37108994 135.39929771 C162.3618454 142.74596567 162.35775403 150.09261551 162.35854149 157.43928909 C162.35914239 164.28017934 162.34858586 171.12099077 162.33279783 177.96186107 C162.31971154 183.84226553 162.31435803 189.72264426 162.3149969 195.60306317 C162.31525152 199.11206751 162.31242002 202.62100173 162.30181885 206.12999153 C162.29031661 210.04383156 162.29489137 213.95756382 162.3009243 217.871418 C162.29530479 219.02953491 162.28968529 220.18765182 162.28389549 221.38086319 C162.30884575 227.74332872 162.43561116 233.01124282 166.10634422 238.44392776 C169.72214636 240.9471754 173.20547359 241.19362663 177.54384422 241.13142776 C182.09887511 240.11919868 183.94824413 237.92385915 186.54384422 234.13142776 C187.13995844 231.39548374 187.13995844 231.39548374 187.05850792 228.44540787 C187.07123238 227.31129471 187.08395683 226.17718155 187.09706688 225.00870132 C187.08727806 223.15628075 187.08727806 223.15628075 187.07729149 221.26643753 C187.08590706 219.95861313 187.09452263 218.65078873 187.10339928 217.30333328 C187.12587685 213.72262928 187.12295752 210.14236763 187.11407781 206.56162 C187.10896272 203.56956903 187.11626472 200.5776008 187.12354988 197.58555835 C187.14054388 190.5254977 187.13698844 183.46565321 187.12026024 176.40559769 C187.10333989 169.12826597 187.11917283 161.85153412 187.15148312 154.57426792 C187.17819613 148.32015221 187.18545045 142.06622303 187.17696804 135.81205601 C187.17204363 132.07937903 187.17422749 128.34706292 187.19475555 124.61443138 C187.21655632 120.45117869 187.19769501 116.28906008 187.17494774 112.12581253 C187.18663994 110.89288971 187.19833214 109.65996689 187.21037865 108.38968277 C187.24897147 101.41880356 187.24897147 101.41880356 184.19190025 95.38177872 C178.34991277 90.41718509 171.79738579 91.20478539 165.54384422 95.13142776 Z M245.54384422 95.13142776 C242.63497678 99.49472893 242.42002128 103.3512476 242.40340233 108.5070076 C242.39769218 109.57236237 242.39198204 110.63771713 242.38609886 111.73535538 C242.384981 112.89392548 242.38386314 114.05249557 242.38271141 115.24617386 C242.37774651 116.4743634 242.3727816 117.70255295 242.36766624 118.96796036 C242.35558165 122.32961321 242.34810608 125.69120407 242.34365559 129.05287123 C242.34071852 131.15536991 242.33661258 133.25786322 242.33215141 135.36035919 C242.31848939 141.94538864 242.30881578 148.53040572 242.30494952 155.11544836 C242.30046845 162.70471457 242.28291297 170.29380071 242.25394893 177.88301218 C242.23230754 183.75833673 242.22224397 189.6336107 242.2209084 195.50897467 C242.21986235 199.01414084 242.21399709 202.51913743 242.19608879 206.02426147 C242.17649249 209.93553056 242.18090689 213.84657567 242.18739891 217.75789261 C242.17818413 218.91241425 242.16896935 220.06693588 242.15947533 221.25644302 C242.19550547 228.18533939 242.69611749 233.33183658 246.95790672 239.01814651 C250.09022422 241.21694081 253.81861906 241.1248577 257.54384422 241.13142776 C262.09887511 240.11919868 263.94824413 237.92385915 266.54384422 234.13142776 C267.13995844 231.39548374 267.13995844 231.39548374 267.05850792 228.44540787 C267.07123238 227.31129471 267.08395683 226.17718155 267.09706688 225.00870132 C267.08727806 223.15628075 267.08727806 223.15628075 267.07729149 221.26643753 C267.08590706 219.95861313 267.09452263 218.65078873 267.10339928 217.30333328 C267.12587685 213.72262928 267.12295752 210.14236763 267.11407781 206.56162 C267.10896272 203.56956903 267.11626472 200.5776008 267.12354988 197.58555835 C267.14054388 190.5254977 267.13698844 183.46565321 267.12026024 176.40559769 C267.10333989 169.12826597 267.11917283 161.85153412 267.15148312 154.57426792 C267.17819613 148.32015221 267.18545045 142.06622303 267.17696804 135.81205601 C267.17204363 132.07937903 267.17422749 128.34706292 267.19475555 124.61443138 C267.21655632 120.45117869 267.19769501 116.28906008 267.17494774 112.12581253 C267.18663994 110.89288971 267.19833214 109.65996689 267.21037865 108.38968277 C267.24897147 101.41880356 267.24897147 101.41880356 264.19190025 95.38177872 C258.34991277 90.41718509 251.79738579 91.20478539 245.54384422 95.13142776 Z M324.9278698 96.39417934 C322.98580027 98.83189241 323.16106714 100.51916082 323.14943504 103.6149025 C323.13808525 104.75468048 323.12673546 105.89445847 323.11504173 107.06877518 C323.11797234 108.32026352 323.12090294 109.57175186 323.12392235 110.86116409 C323.1154528 112.17845001 323.10698326 113.49573593 323.09825706 114.85293961 C323.07601056 118.4688082 323.07311205 122.08444911 323.07500458 125.70037675 C323.07512418 128.71965617 323.06656402 131.73888717 323.05822706 134.75815314 C323.03898031 141.8833432 323.03611317 149.0084161 323.04286766 156.13362503 C323.04950408 163.48019529 323.02666357 170.8262629 322.98955393 178.17273122 C322.95884184 184.48199221 322.94749867 190.79109167 322.95139074 197.1004259 C322.95345736 200.86780371 322.94799373 204.63479075 322.92349815 208.4020977 C322.90120911 211.9473574 322.9031255 215.49180184 322.92342567 219.03706551 C322.92845351 220.95390415 322.90883078 222.87075811 322.8884182 224.78749466 C322.83190425 231.82265825 322.83190425 231.82265825 325.93971825 237.89661026 C329.74873838 241.16544785 332.66026903 241.36270819 337.54384422 241.13142776 C342.09887511 240.11919868 343.94824413 237.92385915 346.54384422 234.13142776 C347.13995844 231.39548374 347.13995844 231.39548374 347.05850792 228.44540787 C347.07123238 227.31129471 347.08395683 226.17718155 347.09706688 225.00870132 C347.08727806 223.15628075 347.08727806 223.15628075 347.07729149 221.26643753 C347.08590706 219.95861313 347.09452263 218.65078873 347.10339928 217.30333328 C347.12587685 213.72262928 347.12295752 210.14236763 347.11407781 206.56162 C347.10896272 203.56956903 347.11626472 200.5776008 347.12354988 197.58555835 C347.14054388 190.5254977 347.13698844 183.46565321 347.12026024 176.40559769 C347.10333989 169.12826597 347.11917283 161.85153412 347.15148312 154.57426792 C347.17819613 148.32015221 347.18545045 142.06622303 347.17696804 135.81205601 C347.17204363 132.07937903 347.17422749 128.34706292 347.19475555 124.61443138 C347.21655632 120.45117869 347.19769501 116.28906008 347.17494774 112.12581253 C347.18663994 110.89288971 347.19833214 109.65996689 347.21037865 108.38968277 C347.24897147 101.41880356 347.24897147 101.41880356 344.19190025 95.38177872 C337.70320524 89.86760499 331.1391267 91.54059111 324.9278698 96.39417934 Z " fill="#000000" transform="translate(43.45615577697754,205.86857223510742)"/>
<path d="M0 0 C1.14018585 -0.01058945 1.14018585 -0.01058945 2.30340576 -0.02139282 C34.09821672 -0.249593 34.09821672 -0.249593 47.890625 3.203125 C48.72368164 3.40711914 49.55673828 3.61111328 50.41503906 3.82128906 C97.38250824 15.61896779 136.96306971 44.55509513 161.890625 86.203125 C173.19650385 106.07391118 186.22493549 134.86002008 183.890625 158.203125 C181.84744661 163.87862053 178.29315059 167.50186221 172.890625 170.203125 C170.95702914 170.35164344 169.01720403 170.42443333 167.078125 170.453125 C166.04042969 170.47890625 165.00273437 170.5046875 163.93359375 170.53125 C160.33579887 170.14329779 158.69894995 169.48691983 155.890625 167.203125 C151.56550362 161.29371007 150.47393055 154.90540659 149.015625 147.828125 C142.06310555 116.28095841 127.49540694 86.87528695 101.890625 66.203125 C101.04113281 65.51605469 100.19164062 64.82898438 99.31640625 64.12109375 C69.07106659 40.560263 32.16309222 29.60044439 -6.10546875 33.66796875 C-22.45432132 35.78695253 -38.46614344 40.6434853 -53.109375 48.203125 C-54.70458984 48.98623047 -54.70458984 48.98623047 -56.33203125 49.78515625 C-68.71052211 56.08505565 -79.02683198 64.71261743 -89.109375 74.203125 C-89.71007812 74.75097656 -90.31078125 75.29882812 -90.9296875 75.86328125 C-101.27975513 85.65974061 -108.61046295 97.6489237 -115.109375 110.203125 C-115.66496094 111.27175781 -116.22054687 112.34039062 -116.79296875 113.44140625 C-123.42943697 127.00738156 -127.33554781 141.39795074 -129.72900391 156.26171875 C-130.73118201 162.24473359 -131.964209 166.2724756 -136.609375 170.453125 C-140.78393255 173.37531528 -144.09905431 173.61380702 -149.109375 173.203125 C-153.7016413 171.83503049 -157.19734359 169.66147708 -160.109375 165.828125 C-166.80576451 153.32364255 -160.12288581 134.19139549 -156.31445312 121.56835938 C-149.60094357 100.91264533 -139.23582882 80.75198517 -125.109375 64.203125 C-124.21971139 63.11983665 -123.33179464 62.03511212 -122.4453125 60.94921875 C-117.97155894 55.50760074 -113.50302005 50.28043589 -108.0390625 45.79296875 C-105.97669197 44.09380922 -104.05838923 42.28078551 -102.109375 40.453125 C-75.27560737 16.62141399 -36.12030895 0.22297747 0 0 Z " fill="#000000" transform="translate(246.109375,-0.203125)"/>
</svg>
